<?xml version="1.0" encoding="UTF-8"?>
<svg viewBox="0 0 678.70905 279.60928" xmlns="http://www.w3.org/2000/svg">
 <defs>
  <filter id="a">
   <feGaussianBlur stdDeviation="3.76611"/>
  </filter>
 </defs>
 <g transform="translate(-32.213 48.881)">
  <path d="m333.18 99.941s7.6633 3.0793 11.454 3.8521c3.8128 0.77743 7.7815 1.5736 11.631 1.0026 1.7803-0.26408 3.2142-1.9524 5.0132-2.0053 1.9016-0.0559 3.5119 1.8048 5.4143 1.8048 6.1299 0 17.689-5.9366 17.689-5.9366" fill="none" stroke="#000"/>
  <path d="m347.77 113.23c-0.38284-0.23808-1.766-1.5166-3.1478-2.8413-3.1934-3.0613-3.9155-3.4886-5.7898-3.843-0.79972-0.15119-2.285-0.84769-2.4853-1.029-0.31714-0.287-2.1816-4.4442-2.1816-4.7221 0-0.0566 2.0009 0.49746 3.1866 0.93486 6.6055 2.4369 13.855 3.6919 18.12 3.2519 1.4068-0.14514 2.0545-0.38806 3.5761-1.1523 1.0922-0.54852 2.4631-0.91739 2.8686-0.91739 0.37988 0 1.462 0.49167 2.4605 0.96347 1.6321 0.77119 2.2133 0.77958 3.6008 0.75822 2.947-0.0454 6.3744-1.2008 12.107-3.7242 1.4751-0.64933 3.6385-1.5582 3.6958-1.501 0.11668 0.11669-2.5049 7.6497-3.106 8.8279-0.21239 0.41631-0.94472 1.1814-1.0345 1.1814s-1.0435-0.88589-1.5264-1.5981c-1.2987-1.9151-0.97817-1.6925-4.5341-1.5147-3.4896 0.17445-3.3485-0.0441-3.8369 2.1187-0.38013 1.6833-0.87429 2.0154-1.6782 2.0154-0.33446 0-1.8519 0.56675-3.0756 0.96299-2.9845 0.96639-4.1004 0.84192-4.8945 0.25478-0.33099-0.24471-1.0703-0.72369-1.6429-0.99029-2.0213-0.9411-3.4105-0.40989-6.5465 1.6968-2.0339 1.3663-3.1801 1.4608-4.1353 0.86685z" fill="#0d1c08"/>
  <g transform="matrix(1.1456 0 0 1 -41.652 0)" fill="#84827d" filter="url(#a)">
   <path d="m532.31-18.95c10.133-11.43 31.454-7.351 37.655 6.3903 4.4056 9.2065-0.23463 23.557-11.509 23.524-9.8166-1.2248-18.727-10.923-20.002-20.857-0.0898-1.3557-0.11575-2.715-0.22618-4.0695m-84.842-8.6941c6.1874-9.7364 17.556-19.869 29.673-15.635 8.3959 1.9038 11.367 20.036 17.883 17.274 5.6076-11.61 19.9-12.617 29.896-6.9566 11.249 3.0134 12.081 18.708-0.12558 20.709-13.77 4.6179-19.812-11.278-28.167-18.508-5.8037-3.8883-13.07-4.9231-19.849-3.9965m-67.102 4.7422c-12.008-5.0105-25.346 10.99-16.953 21.874l0.84902 1.6689 0.67858 1.7496m64.017-20.55c-9.7561-5.5937-22.482-12.467-33.163-5.2351-13.19 5.4828-6.5333 24.438 6.8512 22.943 8.1875 2.0228 20.81 1.221 22.35-9.4075-0.62341-13.818-16.195-18.628-25.196-26.034-11.026-4.8644-24.197 4.406-25.669 15.95 0.95426 10.464 12.894 15.168 21.784 12.501 3.0283-0.34725 6.0834-0.73838 9.1334-0.44301m47.82-10.275c-8.1934-5.9248-31.806-6.3752-26.397 8.6046 6.1524 9.261 20.393 13.114 29.827 7.0189 2.8054-2.0753 4.3635-5.8049 3.5114-9.3006m-16.197 15.808c-11.828-6.4022-26.174 11.741-17.133 22.092 9.3843 7.0981 22.847 6.6311 32.552 0.46175 7.751-9.5877 5.8226-25.574-5.791-30.738-8.7488-8.2576-27.046 2.4125-18.041 13.57 8.6691 11.992 24.391 13.603 37.835 13.28 9.7542 1.4025 26.189-2.1006 22.862-15.67-2.889-10.579-13.055-17.327-22.687-20.493-13.596-5.5057-23.663 14.605-9.0174 20.555 12.38 6.4429 26.517 2.1697 39.518 0.52869 6.936-1.8836 15.75-3.206 20.026-9.5334 0.31092-1.6015-0.142-3.165-0.60439-4.6646m-145.85 28c10.612-5.8368 9.9031-22.835-1.9521-26.457-8.1745-6.0626-23.588-1.8444-22.846 10.044 0.72584 9.7897 5.6516 20.166 14.771 24.317m22.367-20.55c3.7631 11.911 16.993 16.98 28.255 17.013 12.081-5.2353 3.8417-21.514-4.3282-26.469-7.5365-6.3568-22.202-4.2511-26.685 4.852-7.0684-0.76457-7.0282 11.329-4.9554 15.67m6.0944 45.414c11.536 5.0495 26.47 0.04281 32.027-11.707 6.4729-8.6941 10.467-22.93 1.5853-31.439-5.6203-5.7466-15.712-12.857-23.13-6.1422m-7.3209 20.472c7.643-5.2014 22.414-13.544 25.107 1.2442 6.1973 11.158-1.8368 25.23-14.754 20.557-7.143-1.6595-12.46-7.8914-14.98-14.688m-16.197-20.55c-11.693-3.17-27.421 12.042-15.705 22.14 7.3618 7.6788 31.977 5.5976 25.968-8.7702-3.6141-8.6192-27.358-12.06-21.692 1.3257 8.5332 7.8824 18.786 13.36 26.291 22.572 5.6906 4.4412 8.6077-1.2793 8.0833-6.5369-1.5068-3.8894-4.8883-7.514-7.0583-11.248m-50.596 72.202c-3.7714 6.6803-13.332 3.3794-16.197-2.3711m2.3139-9.4845c-2.3678 12.529 21.257 9.7513 18.195-1.4302-3.8063-9.6761-15.188-6.3377-21.595-2.1634-8.4025 5.6726 2.6984 22.912 9.062 12.77l0.50885-1.2726m21.596-67.972c-11.833 4.5221-9.7833 26.12 3.3317 26.986 13.473 2.9118 19.892-17.339 10.234-25.49-4.8209-3.5041-15.364-2.7938-7.1971-9.7631l0.0995-0.96574-0.41066-1.0066m-2.9719 22.095c5.9487-7.5679 27.66-9.4497 25.469 3.8809-2.6721 5.0898-9.6243 6.9522-14.671 4.8132m11.658 14.615c9.8833 9.7918 23.819-10.119 12.269-17.003-8.5924-10.084-18.276 11.79-5.4162 11.872m-37.022-5.5326c-10.668 6.2659-5.8473 25.428 6.3631 25.893 11.719 0.67872 25.73-6.1951 27.653-19.125-0.70599-11.662-20.497-17.256-25.957-6.6366-2.7984 8.4177 6.0275 15.903 13.537 16.466m-46.817 15.748c-3.9308-13.443 14.957-25.985 24.963-16.178 9.9795 11.175-11.55 27.294-15.193 10.315-5.4873-9.7633-0.98047-24.35 11.522-22.847 3.6148-0.33125 7.2465-0.35508 10.871-0.47482" stroke="#484849" stroke-width=".93429"/>
   <path d="m397.74 59.042c-3.7576-1.0353-13.322-7.0362-4.9377-9.3228 7.7105-6.4524 12.034 3.0504 8.124 9.3944l-1.0366 0.05356-2.1497-0.12522-4e-5 1e-6z"/>
   <path d="m421.84 39.982c-5.0864-5.2138-9.4206-11.17-14.119-16.765 4.807-4.7631 10.666-4.4087 13.324-10.92 2.7575-6.072 4.4082-3.9994 6.8863 1.4751 6.0898 3.0215 4.2069 8.1672 2.7666 13.549-0.10658 5.9724-6.3896 7.649-8.858 12.661z"/>
   <path d="m438.43 55.625c-5.1081-0.5665-12.902-5.2459-11.071-11.323 1.0498-3.604 1.1304-7.9322 2.7709-11.095 5.5512-3.4062 15.175-10.134 19.153-1.2766 3.4638 7.1064 6.6999 21.887-4.3244 23.412-2.1594 0.17635-4.3706 0.81699-6.5284 0.283z"/>
   <path d="m459.12 9.8814c-0.18047-6.1353-12.707-11.742-2.6618-14.021 3.925-3.1576 3.9504-10.27 8.1442-3.0898 6.8251 2.6637 2.5816 10.243-2.1586 12.848-1.2605 0.67142-2.4 4.7868-3.3238 4.2636z"/>
   <path d="m491.73-17.162c-6.2002-7.3053-17.646-9.3567-26.348-6.1033-1.4532 3.3839-9.3839-1.4858-3.6266-1.2778 9.7852-2.0547 19.462-6.0177 29.58-4.5558 2.6755 3.2994 7.4906 15.286 10.702 7.6742 1.7072-7.5641 12.808 9.8608 3.2558 4.7677-5.2987-1.4118-9.9204 5.351-13.563-0.505z"/>
   <path d="m526.45-5.2223c2.972-0.54613 16.03-8.4459 10.088-0.80022-3.2446 0.07098-7.0756 1.8318-10.088 0.80022z"/>
   <path d="m545.35 2.4678c-3.7664-3.8788-8.673-10.676 0.52795-9.4284 4.8992-1.6665 17.434-2.7389 10.358 5.1161-3.2757 1.6004-7.3484 4.6717-10.886 4.3123z"/>
   <path d="m419.6-0.29739c-2.3211-7.0324-17.722-7.2254-9.6367-15.231 3.4149 3.5457 12.501 6.59 17.542 10.248-0.40391-0.00713-6.7261 9.2265-7.9058 4.983z"/>
   <path d="m374.95 75.353c-3.0856-8.5069 16.572-7.9454 6.4024-2.7087-1.6386 0.6049-7.353 8.0476-6.4024 2.7087z"/>
   <path d="m380.26 87.803c-4.6125-2.4368-6.9682-13.538-0.36238-5.1325 0.86216 0.65969 2.8476 7.8887 0.36238 5.1325z"/>
   <path d="m371.34 98.434c-8.207-3.3706-2.3225-7.4152 1.9124-1.0668 2.1594 1.6529-1.5305 1.2632-1.9124 1.0668z"/>
   <path d="m409.16 62.389c-2.4363-1.399 4.8458-3.6038 1.0965 0.6423l-1.0965-0.6423z"/>
   <path d="m414.12 56.201c-0.0567-4.9911 4.919 0.87253 0 0z"/>
   <path d="m360.47 92.644c4.9591-5.9752 3.9431 1.684 0 0z"/>
  </g>
  <path d="m32.713 229.96c120.46-34.142 198.31-58.928 297.46-131.61 4.325-0.72971 4.675 8.6372 8.2785 8.2077s8.2071 8.1088 11.086 7.304c2.6738-0.74746 5.8306-5.7862 10.391-2.0254 1.9005 1.5672 6.5739-1.3407 8.6187-1.2397s0.93103-4.3603 2.6582-4.2057 3.5777-0.25519 5.0882-0.10877 2.0382 3.2424 3.4331 3.319 4.6031-12.718 5.9833-12.773c141.87 87.43 198.67 110.58 324.71 133.4" fill="#153708" stroke="#000"/>
  <path d="m302.6 133.82c10.076-5.3032 20.377-9.9305 28.615-20.746" fill="none" stroke="#151300"/>
  <path d="m371.28 138.11c-1.756-4.4439-4.0537-8.3461-2.1461-16.454" fill="none" stroke="#151300"/>
  <path d="m383.44 116.65c21.176 8.18 24.369 21.211 36.484 20.746" fill="none" stroke="#151300"/>
  <path d="m217.47 192.48c17.909-18.007 41.802-20.012 49.361-32.907" fill="none" stroke="#1c1400"/>
  <path d="m288.3 193.2c3.1154 1.9848 20.253-18.2 19.315-22.892" fill="none" stroke="#1c1400"/>
  <path d="m378.43 171.02c7.5831 9.7053 9.2925 17.942 9.2999 25.753" fill="none" stroke="#1c1400"/>
  <path d="m462.85 173.17c4.2922-0.71537 32.907 24.323 45.069 24.323" fill="none" stroke="#1c1400"/>
  <path d="m141.09 213.55c14.708 0.6108 22.836-17.149 39.621-17.395" fill="none" stroke="#1c1400"/>
 </g>
</svg>
